<?xml version="1.0" encoding="utf-8"?>
<!-- Generator: Adobe Illustrator 22.1.0, SVG Export Plug-In . SVG Version: 6.00 Build 0)  -->
<svg version="1.1" id="Capa_1" xmlns="http://www.w3.org/2000/svg" xmlns:xlink="http://www.w3.org/1999/xlink" x="0px" y="0px"
	 viewBox="0 0 373.2 373.2" style="enable-background:new 0 0 373.2 373.2;" xml:space="preserve">
<style type="text/css">
	.st0{fill:#666666;}
	.st1{fill:#FFFFFF;}
</style>
<g>
	<path class="st0" d="M187.5,0c-0.1,0-0.3,0-0.6,0C85.7,0,3.4,82.3,3.4,183.5c0,41.3,14.1,81.4,39.9,113.7l-26.7,62.1
		c-2.2,5.1,0.2,11,5.2,13.1c1.8,0.8,3.8,1,5.7,0.7l97.9-17.2c19.6,7.1,40.2,10.7,61,10.6c101.2,0,183.5-82.3,183.5-183.5
		C370.1,82.1,288.4,0.1,187.5,0z"/>
</g>
<g>
	<path class="st1" d="M181.2,151.9c-21.8,9.9-31.7,29.6-31.7,37.8c1-0.3,3.4-1,6.1-1c15,0,25.2,11.6,25.2,26.5
		c0,15-10.9,26.9-28.6,26.9c-18.4,0-31.7-17.4-31.7-39.1c0-35.4,22.8-59.6,49.4-71.8L181.2,151.9z M252.6,151.9
		c-21.8,9.9-31.7,29.6-31.7,37.8c1-0.3,3.4-1,6.1-1c15,0,25.2,11.6,25.2,26.5c0,15-10.9,26.9-28.6,26.9c-18.4,0-31.7-17.4-31.7-39.1
		c0-35.4,22.8-59.6,49.3-71.8L252.6,151.9z"/>
</g>
</svg>
