<?xml version="1.0" encoding="utf-8"?>
<!-- Generator: Adobe Illustrator 22.1.0, SVG Export Plug-In . SVG Version: 6.00 Build 0)  -->
<svg version="1.1" id="Capa_1" xmlns="http://www.w3.org/2000/svg" xmlns:xlink="http://www.w3.org/1999/xlink" x="0px" y="0px"
	 viewBox="0 0 512 512" style="enable-background:new 0 0 512 512;" xml:space="preserve">
<style type="text/css">
	.st0{fill:#666666;}
</style>
<g>
	<path class="st0" d="M415.7,456.7H271.8c-8.3,0-15,6.7-15,15c0,8.3,6.7,15,15,15h143.9c8.3,0,15-6.7,15-15
		C430.7,463.4,424,456.7,415.7,456.7z"/>
	<path class="st0" d="M66.6,399.7L4.5,461c-9.5,9.4-2.9,25.7,10.5,25.7h96.9c4,0,7.8-1.6,10.6-4.4l13.3-13.3L66.6,399.7z"/>
	<path class="st0" d="M106.7,279.9c-16.7,17.6-23.5,43-17.5,66.6c2.6,10.2,1.3,20.9-3.1,30.2l72.8,72.8c9.3-4.4,20-5.6,30.2-3.1
		c23.7,5.9,49-0.8,66.6-17.6L106.7,279.9z"/>
	<path class="st0" d="M497.2,90.1L454,43.3c-20.7-22.4-55.5-24.1-78.2-3.9L128.5,259.2l148,148l220.8-241.5
		C516.9,144.4,516.9,111.5,497.2,90.1L497.2,90.1z"/>
</g>
</svg>
